<svg xmlns="http://www.w3.org/2000/svg" xmlns:xlink="http://www.w3.org/1999/xlink" width="14px" height="16px" viewBox="0 0 14 16" version="1.1">
<g>
<path style="fill:#ffffff;" d="M 12.5 2 L 11 2 L 11 0.375 C 11 0.167969 10.832031 0 10.625 0 L 9.375 0 C 9.167969 0 9 0.167969 9 0.375 L 9 2 L 5 2 L 5 0.375 C 5 0.167969 4.832031 0 4.625 0 L 3.375 0 C 3.167969 0 3 0.167969 3 0.375 L 3 2 L 1.5 2 C 0.671875 2 0 2.671875 0 3.5 L 0 14.5 C 0 15.328125 0.671875 16 1.5 16 L 12.5 16 C 13.328125 16 14 15.328125 14 14.5 L 14 3.5 C 14 2.671875 13.328125 2 12.5 2 Z M 12.3125 14.5 L 1.6875 14.5 C 1.585938 14.5 1.5 14.414062 1.5 14.3125 L 1.5 5 L 12.5 5 L 12.5 14.3125 C 12.5 14.414062 12.414062 14.5 12.3125 14.5 Z M 12.3125 14.5 "/>
</g>
</svg>
